<svg width="33" height="33" viewBox="0 0 33 33" fill="none" xmlns="http://www.w3.org/2000/svg">
<path d="M16.5 30.25C8.90588 30.25 2.75 24.0941 2.75 16.5C2.75 8.90588 8.90588 2.75 16.5 2.75C24.0941 2.75 30.25 8.90588 30.25 16.5C30.25 24.0941 24.0941 30.25 16.5 30.25ZM15.125 20.625V23.375H17.875V20.625H15.125ZM17.875 18.3631C18.98 18.0301 19.9287 17.3112 20.5482 16.3374C21.1677 15.3636 21.4169 14.1997 21.2503 13.0576C21.0837 11.9156 20.5124 10.8714 19.6405 10.1151C18.7686 9.3589 17.6541 8.94099 16.5 8.9375C15.3874 8.93715 14.309 9.32236 13.4483 10.0276C12.5877 10.7328 11.998 11.7144 11.7796 12.8054L14.4774 13.3458C14.5539 12.9627 14.7377 12.6093 15.0073 12.3266C15.2768 12.0439 15.6211 11.8436 16.0001 11.749C16.3791 11.6543 16.7771 11.6692 17.1479 11.792C17.5188 11.9147 17.8471 12.1402 18.0948 12.4423C18.3424 12.7443 18.4992 13.1105 18.5469 13.4982C18.5946 13.8858 18.5313 14.2791 18.3642 14.6322C18.1971 14.9853 17.9332 15.2836 17.6032 15.4926C17.2732 15.7015 16.8906 15.8125 16.5 15.8125C16.1353 15.8125 15.7856 15.9574 15.5277 16.2152C15.2699 16.4731 15.125 16.8228 15.125 17.1875V19.25H17.875V18.3631Z" fill="#2E2A26"/>
</svg>
