<svg width="132" height="24" viewBox="0 0 132 24" fill="none" xmlns="http://www.w3.org/2000/svg">
<path d="M5.825 22L7.45 14.975L2 10.25L9.2 9.625L12 3L14.8 9.625L22 10.25L16.55 14.975L18.175 22L12 18.275L5.825 22Z" fill="#E9A857"/>
<path d="M33.825 22L35.45 14.975L30 10.25L37.2 9.625L40 3L42.8 9.625L50 10.25L44.55 14.975L46.175 22L40 18.275L33.825 22Z" fill="#E9A857"/>
<path d="M61.825 22L63.45 14.975L58 10.25L65.2 9.625L68 3L70.8 9.625L78 10.25L72.55 14.975L74.175 22L68 18.275L61.825 22Z" fill="#E9A857"/>
<path d="M89.825 22L91.45 14.975L86 10.25L93.2 9.625L96 3L98.8 9.625L106 10.25L100.55 14.975L102.175 22L96 18.275L89.825 22Z" fill="#E9A857"/>
<path d="M115.825 22L117.45 14.975L112 10.25L119.2 9.625L122 3L124.8 9.625L132 10.25L126.55 14.975L128.175 22L122 18.275L115.825 22Z" fill="#E9A857"/>
</svg>
