<svg width="21" height="21" viewBox="0 0 21 21" fill="none" xmlns="http://www.w3.org/2000/svg">
<g clip-path="url(#clip0_1_312)">
<path d="M10.4373 0C7.6049 0 7.24872 0.0130467 6.13584 0.062624C5.02296 0.114811 4.26495 0.289636 3.60088 0.54796C2.90398 0.809317 2.27291 1.22038 1.75217 1.75217C1.22038 2.27291 0.809317 2.90398 0.54796 3.60088C0.289636 4.26365 0.113506 5.02296 0.062624 6.13193C0.0130467 7.24742 0 7.60229 0 10.4386C0 13.2724 0.0130467 13.6272 0.062624 14.7401C0.114811 15.8517 0.289636 16.6097 0.54796 17.2738C0.815416 17.96 1.17159 18.5419 1.75217 19.1225C2.33144 19.7031 2.91332 20.0605 3.59957 20.3267C4.26495 20.585 5.02166 20.7611 6.13323 20.812C7.24742 20.8616 7.60229 20.8747 10.4373 20.8747C13.2724 20.8747 13.6259 20.8616 14.7401 20.812C15.8504 20.7598 16.611 20.585 17.2751 20.3267C17.9715 20.0652 18.6021 19.6541 19.1225 19.1225C19.7031 18.5419 20.0592 17.96 20.3267 17.2738C20.5837 16.6097 20.7598 15.8517 20.812 14.7401C20.8616 13.6272 20.8747 13.2724 20.8747 10.4373C20.8747 7.60229 20.8616 7.24742 20.812 6.13323C20.7598 5.02296 20.5837 4.26365 20.3267 3.60088C20.0653 2.90398 19.6543 2.27291 19.1225 1.75217C18.6017 1.22038 17.9707 0.809317 17.2738 0.54796C16.6084 0.289636 15.8491 0.113506 14.7388 0.062624C13.6246 0.0130467 13.2711 0 10.4347 0H10.4373ZM9.50188 1.88133H10.4386C13.2254 1.88133 13.5555 1.89046 14.6553 1.94134C15.6729 1.98701 16.2261 2.15792 16.594 2.30013C17.0807 2.4893 17.429 2.71631 17.7943 3.08162C18.1596 3.44693 18.3853 3.79397 18.5745 4.28191C18.718 4.64852 18.8876 5.2017 18.9333 6.21934C18.9842 7.31917 18.9946 7.64926 18.9946 10.4347C18.9946 13.2202 18.9842 13.5516 18.9333 14.6514C18.8876 15.669 18.7167 16.2209 18.5745 16.5888C18.406 17.0414 18.1391 17.4509 17.793 17.7878C17.4277 18.1531 17.0807 18.3788 16.5927 18.568C16.2274 18.7115 15.6743 18.8811 14.6553 18.9281C13.5555 18.9777 13.2254 18.9894 10.4386 18.9894C7.65187 18.9894 7.32048 18.9777 6.22065 18.9281C5.20301 18.8811 4.65113 18.7115 4.28322 18.568C3.83028 18.4 3.42031 18.1336 3.08292 17.7878C2.73624 17.4507 2.46886 17.0407 2.30013 16.5875C2.15792 16.2209 1.98701 15.6677 1.94134 14.6501C1.89177 13.5503 1.88133 13.2202 1.88133 10.4321C1.88133 7.64404 1.89177 7.31657 1.94134 6.21673C1.98831 5.19909 2.15792 4.64591 2.30143 4.278C2.49061 3.79136 2.71762 3.44301 3.08292 3.07771C3.44823 2.7124 3.79527 2.48669 4.28322 2.29752C4.65113 2.154 5.20301 1.9844 6.22065 1.93743C7.18349 1.89307 7.55662 1.88002 9.50188 1.87872V1.88133ZM16.0096 3.61392C15.8451 3.61392 15.6822 3.64632 15.5302 3.70926C15.3783 3.77221 15.2402 3.86446 15.1239 3.98077C15.0076 4.09707 14.9154 4.23514 14.8524 4.3871C14.7895 4.53906 14.7571 4.70193 14.7571 4.8664C14.7571 5.03088 14.7895 5.19375 14.8524 5.34571C14.9154 5.49766 15.0076 5.63574 15.1239 5.75204C15.2402 5.86834 15.3783 5.9606 15.5302 6.02354C15.6822 6.08649 15.8451 6.11888 16.0096 6.11888C16.3417 6.11888 16.6603 5.98692 16.8952 5.75204C17.1301 5.51715 17.262 5.19858 17.262 4.8664C17.262 4.53422 17.1301 4.21565 16.8952 3.98077C16.6603 3.74588 16.3417 3.61392 16.0096 3.61392ZM10.4386 5.07776C9.72768 5.06667 9.02163 5.19712 8.36157 5.46151C7.70152 5.72591 7.10066 6.11897 6.59398 6.61782C6.08729 7.11666 5.6849 7.71131 5.41024 8.36716C5.13558 9.02301 4.99413 9.72694 4.99413 10.438C4.99413 11.149 5.13558 11.8529 5.41024 12.5088C5.6849 13.1646 6.08729 13.7593 6.59398 14.2581C7.10066 14.757 7.70152 15.15 8.36157 15.4144C9.02163 15.6788 9.72768 15.8093 10.4386 15.7982C11.8458 15.7762 13.1878 15.2019 14.1752 14.199C15.1625 13.1962 15.7159 11.8453 15.7159 10.438C15.7159 9.03067 15.1625 7.6798 14.1752 6.67695C13.1878 5.6741 11.8458 5.09971 10.4386 5.07776ZM10.4386 6.95778C10.8956 6.95778 11.348 7.04778 11.7702 7.22265C12.1924 7.39751 12.5759 7.65381 12.899 7.97692C13.2221 8.30002 13.4784 8.6836 13.6533 9.10576C13.8282 9.52792 13.9182 9.98039 13.9182 10.4373C13.9182 10.8943 13.8282 11.3467 13.6533 11.7689C13.4784 12.191 13.2221 12.5746 12.899 12.8977C12.5759 13.2208 12.1924 13.4771 11.7702 13.652C11.348 13.8269 10.8956 13.9169 10.4386 13.9169C9.5158 13.9169 8.63076 13.5503 7.97822 12.8977C7.32568 12.2452 6.95909 11.3602 6.95909 10.4373C6.95909 9.51449 7.32568 8.62946 7.97822 7.97692C8.63076 7.32438 9.5158 6.95778 10.4386 6.95778Z" fill="#4E4D4D"/>
</g>
<defs>
<clipPath id="clip0_1_312">
<rect width="20.8747" height="20.8747" fill="white"/>
</clipPath>
</defs>
</svg>
