<svg width="20" height="20" viewBox="0 0 20 20" fill="none" xmlns="http://www.w3.org/2000/svg">
<g clip-path="url(#clip0_1_316)">
<path d="M0 1.39321C0 0.62366 0.639464 0 1.42846 0H18.0229C18.8119 0 19.4514 0.62366 19.4514 1.39321V18.0582C19.4514 18.8277 18.8119 19.4514 18.0229 19.4514H1.42846C0.639464 19.4514 0 18.8277 0 18.0582V1.39321ZM6.00926 16.2832V7.49972H3.09034V16.2832H6.00926ZM4.55041 6.29982C5.56796 6.29982 6.20134 5.62631 6.20134 4.78261C6.18311 3.92067 5.56917 3.2654 4.56986 3.2654C3.57054 3.2654 2.91771 3.92188 2.91771 4.78261C2.91771 5.62631 3.55109 6.29982 4.53096 6.29982H4.55041ZM10.5171 16.2832V11.3778C10.5171 11.1152 10.5366 10.8527 10.6144 10.6654C10.8247 10.1415 11.3049 9.59804 12.1121 9.59804C13.1686 9.59804 13.5904 10.4028 13.5904 11.5845V16.2832H16.5094V11.2453C16.5094 8.54645 15.07 7.29184 13.1491 7.29184C11.6003 7.29184 10.9061 8.14283 10.5171 8.74218V8.77257H10.4977L10.5171 8.74218V7.49972H7.59941C7.63588 8.32397 7.59941 16.2832 7.59941 16.2832H10.5171Z" fill="#4E4D4D"/>
</g>
<defs>
<clipPath id="clip0_1_316">
<rect width="19.4514" height="19.4514" fill="white"/>
</clipPath>
</defs>
</svg>
