<svg width="24" height="24" viewBox="0 0 24 24" fill="none" xmlns="http://www.w3.org/2000/svg">
<g clip-path="url(#clip0_1_314)">
<path d="M11.9362 2.96484H12.0682C13.2868 2.96929 19.4618 3.01377 21.1267 3.46151C21.63 3.59815 22.0887 3.8645 22.4568 4.23394C22.8249 4.60338 23.0897 5.06296 23.2245 5.56676C23.3743 6.13014 23.4795 6.87588 23.5507 7.64533L23.5655 7.79952L23.5981 8.18499L23.61 8.33918C23.7064 9.69425 23.7182 10.9633 23.7197 11.2406V11.3518C23.7182 11.6394 23.7049 12.9945 23.5981 14.4059L23.5863 14.5615L23.5729 14.7157C23.4988 15.5638 23.3891 16.4059 23.2245 17.0256C23.0897 17.5294 22.8249 17.989 22.4568 18.3584C22.0887 18.7278 21.63 18.9942 21.1267 19.1308C19.4069 19.5934 12.8702 19.626 11.9644 19.6275H11.7539C11.2957 19.6275 9.40101 19.6186 7.41436 19.5504L7.16232 19.5415L7.03333 19.5356L6.77981 19.5252L6.52629 19.5148C4.88064 19.4422 3.31355 19.3251 2.59154 19.1294C2.08839 18.9928 1.62987 18.7267 1.26175 18.3575C0.893626 17.9884 0.628794 17.5291 0.493697 17.0256C0.329132 16.4073 0.219421 15.5638 0.145292 14.7157L0.133432 14.5601L0.121571 14.4059C0.0479812 13.4013 0.00743558 12.3946 0 11.3873L0 11.205C0.00296515 10.8862 0.0148257 9.78469 0.0948848 8.56898L0.105263 8.41627L0.109711 8.33918L0.121571 8.18499L0.154188 7.79952L0.169014 7.64533C0.240177 6.87588 0.34544 6.12866 0.49518 5.56676C0.63005 5.06296 0.894781 4.60338 1.26292 4.23394C1.63105 3.8645 2.0897 3.59815 2.59302 3.46151C3.31504 3.26877 4.88212 3.15017 6.52778 3.07604L6.77981 3.06566L7.03482 3.05676L7.16232 3.05232L7.41584 3.04194C8.82682 2.99658 10.2384 2.97137 11.6501 2.96633L11.9362 2.96484ZM9.48848 7.72391V14.867L15.6515 11.2969L9.48848 7.72391Z" fill="#4E4D4D"/>
</g>
<defs>
<clipPath id="clip0_1_314">
<rect width="23.7212" height="23.7212" fill="white"/>
</clipPath>
</defs>
</svg>
